<svg width="200" height="200" viewBox="0 0 200 200" xmlns="http://www.w3.org/2000/svg"><title>logo-bold</title><g fill="none" fill-rule="evenodd"><path fill="#CA362B" d="M0 199.986h200V0H0z"/><path d="M87.157 30.748v79.787c0 12.954 4.653 19.434 13.965 19.434 3.97 0 7.338-1.353 10.107-4.053 2.766-2.7 4.15-5.972 4.15-9.815 0-3.97-1.303-7.31-3.906-10.01-2.604-2.701-5.796-4.053-9.57-4.053-2.67 0-5.73 1.171-9.18 3.515V65.319c4.297-.391 7.552-.586 9.766-.586 13.735 0 25.502 4.948 35.302 14.844 9.798 9.897 14.697 21.81 14.697 35.743 0 14.258-4.98 26.27-14.941 36.035-9.96 9.766-22.202 14.649-36.718 14.649-7.292 0-14.404-1.597-21.338-4.785-6.933-3.19-12.646-7.486-17.138-12.891-7.813-9.375-11.719-21.519-11.719-36.426V30.748h36.523" fill="#FFF"/></g></svg>